<?xml version="1.0" encoding="UTF-8"?>
<svg id="Warstwa_1" data-name="Warstwa 1" xmlns="http://www.w3.org/2000/svg" viewBox="0 0 1683.1 861.57">
  <defs>
    <style>
      .cls-1, .cls-2 {
        fill: #fff;
      }

      .cls-2 {
        font-family: Autumn, Autumn;
        font-size: 217.97px;
      }
    </style>
  </defs>
  <path class="cls-1" d="m306.59,659.78c-21.12-20.33-37.19-43.11-40.66-72.72-2.55-21.81,3.67-41.55,15.05-59.85,11.15-17.94,26.01-32.4,42.99-44.8,1.36-.99,3.28-1.49,3.89-4.04-7.71,1.39-14.83,3.8-21.92,6.28-32.89,11.52-63.47,27.25-89.86,50.33-29.09,25.43-48.08,56.64-53.65,95.35-.23,1.58-.33,3.17-.67,4.72-1.14-49,9.02-94.84,38.02-135.38,2.16-3.01,4.68-5.76,6.95-8.7.81-1.05,2.89-1.93,1.78-3.45-.94-1.3-2.71-.16-4.07.18-10.6,2.62-20.32,7.36-29.69,12.8-12.48,7.24-23.68,16.2-34.97,25.77.72-2.12,1.39-4.26,2.17-6.36,10.58-28.5,28.41-51.95,50.58-72.33,26.66-24.5,57.07-43.18,90.15-57.66.73-.32,1.46-.68,2.13-1.1.2-.13.21-.55.63-1.81-45.17,1.84-87.47,12.72-127.24,33.33-40.13,20.8-72.39,50.3-96.94,88.37,8.58-45.7,29.01-85.35,60.21-119.6,31.04-34.07,68.32-59.22,110.69-77.65-26.37-7.45-53.27-10.39-80.42-10.13-27.38.25-54.29,4.24-79.89,14.86-.68-1.96.66-2.71,1.37-3.64,24.85-32.61,58.16-51.5,97.89-59.46,33.2-6.65,66.42-5.46,99.52,1.21,1.55.31,3.1.61,4.86.96-3.29-7.17-45.62-34.47-78.46-47.32-28.74-11.24-58.34-18.47-89.85-19.67,1.45-2.75,3.59-4.17,5.48-5.75,28.94-24.09,62.54-37.71,99.38-43.78,40.32-6.64,80.37-4.48,120.12,4.6.45.1.94.01,1.43.01-2.44-5.07-37.93-30.14-62.1-44.1-22.26-12.86-45.23-24.15-69.87-32.26,6.97-2.46,14.17-3.28,21.39-3.88,46.36-3.89,90.86,5.57,134.76,19.03,24.56,7.53,48.53,16.68,71.79,27.63,1.09.51,2.36,1.78,3.47.49.77-.89-.07-2.17-.53-3.16-13.35-28.2-29.7-54.06-56.34-71.83-1.61-1.07-3.29-2.04-4.96-3.03-1.49-.89-3.01-1.73-4.41-2.89,9.16.96,18.06,2.97,26.92,5.25,43.57,11.2,81.31,33.25,115.53,61.92,15.6,13.07,30.37,27.05,45.6,40.53,1.11.98,1.89,2.66,3.83,2.44.55-1.44-.58-2.12-1.21-2.96-17.68-23.47-35.4-46.9-53.05-70.4-2.19-2.91-4.84-5.1-7.92-6.96-42.79-25.83-89.15-42.11-137.99-51.79-18.38-3.64-36.93-5.94-55.61-7.29-.92-.07-1.92-.48-3.12,1.09,24.09,16.97,49.32,32.43,70.75,53.04-10.9-1.89-21.58-4.04-32.36-5.63-22.19-3.29-44.49-5.36-66.91-6.46-19.86-.98-39.68-1.03-59.51.16-35.43,2.11-70.27,7.28-103.59,20.21-1.2.46-2.37,1.01-3.51,1.59-.19.1-.2.55-.43,1.24,48.66,7.78,97.78,14.06,139.19,44.55-81.11,8.89-153.99,36.05-214.05,93.21,21.98-.12,43.35,2.44,63.93,9.9-.11.7-.06,1.16-.22,1.26-22.01,13.39-37.48,32.9-50.47,54.54C22.72,301.88,10.01,337.88.39,375.07c-.19.75-.21,1.54-.39,2.85,3.54-1.23,5.53-3.76,7.86-5.76,17.19-14.68,35.64-27.3,57.37-34.35,12.91-4.19,26.09-6.03,39.57-2.93,5.14,1.18,5.15,1.37,1.99,5.73-36.5,50.32-63.71,105.05-78.52,165.64-6.85,28.03-10.25,56.48-9.48,85.38.02.81-.02,1.62.06,2.42.09.92-.22,2.17.9,2.53,1.52.49,1.79-1.06,2.32-1.93,6.35-10.31,12.45-20.77,19.02-30.94,17.37-26.9,35.84-52.97,59.42-74.95,8.06-7.51,16.64-14.37,27.08-18.37,5.31-2.04,5.9-1.41,5,4.2-4.75,29.52-7.88,59.24-6.96,89.14,1.53,49.69,16.82,95.34,42.81,137.53.7,1.13,1.18,3.25,2.88,2.72,1.7-.52.96-2.55.86-3.87-.99-12.25-1.23-24.53-.69-36.78,1.17-26.79,5.29-52.93,17.56-77.27,10.56-20.95,26.93-35.97,46.98-47.47,4.15-2.38,3.74.35,3.79,2.9.49,22.46,2.13,44.8,7.53,66.7,4.6,18.69,11.5,36.39,24.23,51.17,17.49,20.33,39.73,28.33,66.27,24.74,4.25-.58,4.33-2.45,3.17-5.93-8.03-24.08-10.52-48.78-7.77-74.02.03-.25.27-.47.4-.69,20.96,53.14,58.58,94.08,97.8,134.07.3-22.43-.2-44.56.81-67.5,6.5,5.38,11.41,11.07,16.01,17.04,16.8,21.81,28.71,46.3,39.11,71.61,12.54,30.52,22.22,61.96,30.2,93.94.34,1.37.14,3.39,1.79,3.62,1.62.22,2.06-1.79,2.77-2.99,12.11-20.46,19.04-42.74,22.1-66.15,7.66-58.69-1.41-115.09-24.16-169.49-3.18-7.61-7.21-14.8-11.77-21.67-.85-1.28-1.5-2.84-4.15-3.74,6.06,28.95,11.56,57.31,14.7,86.08,3.16,28.91,4.36,57.81.97,86.87-1.51-9.31-2.9-18.64-4.54-27.92-3.97-22.41-8.37-44.73-15.59-66.38-2.76-8.28-5.87-16.46-11.04-23.6-3.75-5.19-5.37-5.12-8.62.32-5.73,9.58-6.48,20.13-5.47,30.92.6,6.41,1.68,12.77,2.66,19.32-59.09-63.14-101.71-134.67-112.54-223.16-3.36,3.17-4.23,6.61-5.22,9.9-4.46,14.8-4.55,30.06-3.17,45.15,4.17,45.93,19.43,88.01,45.62,126.05,3.06,4.45,6.39,8.72,9.34,13.34-8.89-4.03-16.79-9.47-24.02-15.9-25.06-22.29-40.65-50.64-52-81.65-3.16-8.63-6.03-17.38-7.95-26.4-.2-.93-.25-2.18-1.26-2.45-1.5-.4-1.73,1.13-2.21,2.04-12.99,24.6-21.79,50.35-21,78.6.28,10.01,1.98,19.89,3.22,29.81.28,2.2.38,4.43.56,6.65Z"/>
  <polyline class="cls-1" points="667.8 327.42 670.85 328.26 674.59 329.47 678.25 330.86 681.02 332.1 684.19 333.72 687.67 335.76 690.71 337.69 695.13 341.08 697.98 343.47 701.45 346.75 705.5 351.09 706.74 352.56 705.46 352.95 704.42 353.13 703.02 353.3 701.59 353.18 699.74 352.83 697.5 352.04 695.97 351.34 693.99 350.51 692.1 349.8 690.54 349.41 691.05 352.72 692.41 358.99 693.46 362.89 694.85 366.72 696.43 370.28 697.93 372.99 699.65 375.57 701.34 377.7 703.41 379.94 705.68 381.98 708.98 384.39 712.11 386.17 713.9 386.96 716.03 387.48 717.67 387.62 719.97 387.3 722.07 386.51 723.72 385.46 725.27 384.22 726.4 383.03 727.86 382.2 729.29 381.87 730.34 382 731.55 382.31 786.28 411.43 795.68 415.63 750.78 381.07 753.4 378.88 755.55 375.87 755.89 374.47 756.1 372.26 755.65 370.25 754.34 368.5 752.35 367.05 751.36 366.23 750.29 364.79 749.75 369.03 749.22 370.72 748.41 372.04 746.93 373.15 744.97 373.92 743.73 374.08 742.81 373.73 742.06 373.11 741.05 371.24 737.83 365.86 735.79 362.95 732.94 359.4 729.42 355.65 724.69 351.3 718.36 346.44 712.05 342.4 702.45 336.92 694.43 333.29 690.08 331.83 685.71 330.38 680.13 328.92 671.74 326.95 670.52 326.84 669.58 326.9 668.4 327.21 667.74 327.43"/>
  <path class="cls-1" d="m778.36,353.53l6.6,1.94,5.69,1.86,8.25,3.03,7.51,3.15,11.44,5.05,7.5,3.59,4.33,2.02,11.21,5.92,8.33,4.95,4.86,3.17,4.12,2.89,2.89,2.06,6.22,5.11,3.38,3.46,3.3,4.2,1.79,3.28.93,2.29.71,1.92.65,3.18.25,3.09-.06,2.38-.49,4.02-.4,1.76-.65,2.26-1.02,2.38-.75,1.97-1.36,2.27-1.57,2.68-1.98,2.93-2.72,2.72-3.38,3.05-2.14,1.61-2.97,1.61-1.71.71-1.86.49-.87.22-1.11.15-1.45.12s-.71.05-.76.03-1.17-.02-1.17-.02l-1.98-.26-2.12-.43-2.89-.93-1.9-.71-2.26-1.1-1.2-.6-1.41-.85-.91-.55-1.69-1.16-1.05-.73-2.42-1.94-3.19-2.94-2.09-2.14-1.42-1.49-2.2-2.49-3.22-3.8-3.32-3.97,12.83-.02h13.79s1.87-.1,1.87-.1l1.19-.15,1.75-.32,1.77-.43,1.33-.41.9-.33,1.04-.44,1.4-.61,1.03-.57,1.21-.7,1.27-.93.66-.73.6-.85.56-1.17.23-.91v-1.24s-.2-1.33-.2-1.33l-.65-1.72-.76-1.56-1.82-3.09-1.39-1.99-1.61-2.04-1.89-2.32-4.77-5.29-4.16-4.33-5.11-4.66-4.62-3.92-5.03-3.71-4.82-3.26-6.22-3.79-7.79-4.27-7.54-3.65-5.26-2.29-5.69-2.16-6.93-2.54-3.71-5.57"/>
  <path class="cls-1" d="m799.94,455.91c1.05,17.77.6,35.77-2.29,53.43-1.51,8.8-3.59,17.56-7.01,25.8-1.71,4.11-3.82,8.07-6.6,11.53-1.42,1.7-3,3.27-4.86,4.5-1.85,1.22-4.01,2.05-6.29,2.19,2.28.15,4.62-.43,6.7-1.47,2.09-1.04,3.96-2.49,5.67-4.09,3.35-3.27,6.05-7.15,8.34-11.19,4.59-8.12,7.82-16.89,10.47-25.78,5.18-17.84,7.9-36.32,9.04-54.92h-13.15Z"/>
  <path class="cls-1" d="m776.61,455.87c1.06,14.77.87,29.76-1.36,44.49-1.16,7.34-2.8,14.66-5.57,21.54-1.38,3.44-3.09,6.75-5.37,9.66-1.16,1.42-2.46,2.75-3.99,3.79-1.52,1.04-3.31,1.75-5.22,1.89,1.91.14,3.87-.31,5.63-1.17,1.77-.85,3.35-2.05,4.8-3.38,2.84-2.72,5.15-5.95,7.11-9.32,3.93-6.77,6.72-14.09,9.03-21.52,4.52-14.91,6.97-30.38,8.1-45.97h-13.15Z"/>
  <path class="cls-1" d="m754.26,455.86c1.07,11.51,1.16,23.22-.34,34.77-.79,5.76-1.96,11.5-4,16.92-1.02,2.71-2.3,5.32-4.03,7.62-.88,1.13-1.87,2.18-3.05,3.02-1.17.83-2.56,1.42-4.06,1.56,1.5.14,3.06-.19,4.46-.84,1.41-.65,2.69-1.58,3.85-2.61,2.29-2.11,4.17-4.64,5.77-7.28,3.21-5.3,5.53-11.06,7.46-16.9,3.79-11.72,5.96-23.92,7.09-36.25h-13.15Z"/>
  <polygon class="cls-1" points="754.41 455.91 767.56 448.08 767.15 456.16 754.41 455.91"/>
  <polygon class="cls-1" points="776.63 456.03 789.95 448.1 789.53 456.28 776.63 456.03"/>
  <polygon class="cls-1" points="800.12 455.85 813.27 448.02 812.86 456.1 800.12 455.85"/>
  <path class="cls-1" d="m824.41,550.42c-.17-.05-.33-.1-.5-.14-7.55,1.72-14.92,4.16-22.03,7.6.01.11.02.22,0,.35-.21,1.68-1.79,1.56-3.01,1.62-7.8.38-15.1-2.41-22.66-3.56-14.98-2.29-30.23-4.79-45.04-.42-12.85,3.79-24.6,10.79-31.32,22.83-3.59,6.45-5.23,14.34-3.78,22.22,2.25,12.19,6.53,23.63,12.99,34.18,5.71,9.33,11.8,18.34,19.5,26.33,7.68,7.96,17.55,9.61,27.43,11.46,13.96,2.62,28.13.86,42.2,1.22,6.19.16,9.4,3.26,9.82,9.54.4,6.06-2.06,11.58-4.17,16.79-2.63,6.53-6.31,12.69-11.33,18.16-6.72,7.32-14.39,7.42-22.91,5.67-17.12-3.51-32.76-10.77-48.35-18.4-14.21-6.95-27.79-14.96-41.44-22.86-4.94,7.5-10.98,14.47-15.84,21.58,10.9,4.75,22.31,8.32,33.5,12.33,16.22,5.81,32.83,10.71,49.73,13.8,10.42,1.91,21.24,3.52,32.16,1.56,11.01-1.98,17.97-8.92,23.63-17.6,5.29-8.12,8.78-17.05,9.62-26.82.77-8.98-2.71-14.02-11.64-15.86-3.79-.78-2.06-2.93-1.7-4.39,2.48-10.03-2.32-18.91-4.3-28.23-.2-.92-1.2-1.66-2.04-2.77-3.49,8.77-7.97,16.61-13.64,23.68-8.77,10.93-12.94,12.02-27.03,6.6-15.93-6.13-25.16-18.38-32.13-33.42-7.29-15.71-9.64-31.9-7.8-48.83,1.03-9.44,9.96-20.41,21.7-20.08,13.16.37,26.34.63,39.43,2.33,3.44.45,6.93,1.2,10.36,1.02,7.45-.4,9.81,4.98,11.78,10.23,3.12,8.33,6.11,16.81,4.1,27.54,5.47-4.38,7.09-9.47,9.09-14,3.31-7.5,5.31-15.51,5.31-23.79,0-3.73,1.86-4.93,4.98-5.78,9.03-2.46,17.09-6.29,22.4-14.66-2.12.21-4.22.47-6.32.76-3.31,2.14-7.15,3.19-10.74,2.19Zm-41.47,115.58c4.46-6.6,7.19-14.01,9.99-21.48,4.89,4.27,5.21,20.32,2.61,24.43-2.02,3.18-5.71.61-8.63.86-1.62.14-3.44.16-4.21-1.74-.23-.58-.12-1.55.23-2.08Zm20.57-72.76c.51-9.23-3.2-16.42-4.93-24.16,4.11-.89,8.6.91,12.6-3.53,0,10.4-1.73,18.98-7.66,27.69Z"/>
  <path class="cls-1" d="m486.24,591.26c-14.8-14.25-26.07-30.22-28.5-50.96-1.79-15.29,2.57-29.12,10.55-41.95,7.82-12.57,18.23-22.71,30.13-31.4.95-.69,2.3-1.04,2.73-2.83-5.41.98-10.4,2.66-15.36,4.4-23.05,8.07-44.48,19.1-62.98,35.27-20.39,17.83-33.7,39.7-37.6,66.83-.16,1.11-.23,2.22-.47,3.31-.8-34.34,6.32-66.47,26.65-94.89,1.51-2.11,3.28-4.04,4.87-6.1.57-.74,2.02-1.35,1.25-2.42-.66-.91-1.9-.11-2.85.12-7.43,1.84-14.24,5.16-20.81,8.97-8.75,5.08-16.6,11.36-24.51,18.06.5-1.49.97-2.98,1.52-4.45,7.41-19.97,19.91-36.41,35.45-50.69,18.68-17.17,40-30.26,63.18-40.41.51-.22,1.02-.47,1.49-.77.14-.09.15-.39.44-1.27-31.66,1.29-61.3,8.91-89.18,23.36-28.13,14.58-50.73,35.25-67.94,61.94,6.01-32.03,20.33-59.82,42.2-83.82,21.75-23.88,47.88-41.5,77.58-54.42-18.48-5.22-37.33-7.28-56.36-7.1-19.19.18-38.05,2.97-55.99,10.41-.47-1.37.46-1.9.96-2.55,17.42-22.86,40.76-36.09,68.61-41.67,23.27-4.66,46.55-3.82,69.75.85,1.09.22,2.17.43,3.41.67-2.31-5.02-31.98-24.16-54.99-33.17-20.15-7.88-40.89-12.95-62.97-13.78,1.02-1.93,2.51-2.92,3.84-4.03,20.28-16.88,43.83-26.43,69.65-30.68,28.26-4.66,56.33-3.14,84.19,3.22.31.07.66,0,1,0-1.71-3.56-26.58-21.12-43.52-30.91-15.6-9.02-31.7-16.93-48.97-22.61,4.89-1.73,9.93-2.3,14.99-2.72,32.49-2.72,63.68,3.9,94.45,13.34,17.22,5.28,34.01,11.69,50.31,19.36.76.36,1.65,1.25,2.43.35.54-.62-.05-1.52-.37-2.21-9.36-19.77-20.81-37.89-39.49-50.35-1.13-.75-2.31-1.43-3.48-2.12-1.05-.62-2.11-1.22-3.09-2.02,6.42.67,12.66,2.08,18.87,3.68,30.54,7.85,56.99,23.31,80.97,43.4,10.93,9.16,21.29,18.96,31.96,28.41.78.69,1.33,1.87,2.68,1.71.39-1.01-.41-1.49-.85-2.07-12.39-16.45-24.81-32.87-37.18-49.34-1.53-2.04-3.39-3.58-5.55-4.88-29.99-18.1-62.48-29.51-96.71-36.3-12.88-2.55-25.89-4.16-38.98-5.11-.65-.05-1.35-.33-2.19.77,16.88,11.9,34.57,22.73,49.59,37.17-7.64-1.32-15.12-2.83-22.68-3.95-15.56-2.3-31.18-3.76-46.9-4.53-13.92-.68-27.81-.72-41.71.11-24.83,1.48-49.25,5.1-72.6,14.16-.84.33-1.66.71-2.46,1.11-.14.07-.14.39-.3.87,34.1,5.45,68.53,9.85,97.55,31.22-56.85,6.23-107.93,25.26-150.02,65.33,15.41-.08,30.38,1.71,44.8,6.94-.08.49-.04.81-.16.88-15.42,9.38-26.27,23.06-35.37,38.23-13.92,23.19-22.83,48.42-29.57,74.49-.14.52-.15,1.08-.27,2,2.48-.86,3.87-2.64,5.51-4.03,12.05-10.29,24.98-19.14,40.21-24.08,9.05-2.93,18.28-4.23,27.73-2.05,3.6.83,3.61.96,1.39,4.01-25.58,35.27-44.65,73.63-55.03,116.09-4.8,19.65-7.18,39.59-6.64,59.84.02.57-.01,1.13.04,1.7.06.64-.16,1.52.63,1.77,1.07.34,1.25-.74,1.63-1.35,4.45-7.22,8.73-14.56,13.33-21.69,12.17-18.86,25.12-37.12,41.64-52.53,5.65-5.27,11.66-10.07,18.98-12.88,3.72-1.43,4.14-.99,3.5,2.94-3.33,20.69-5.52,41.52-4.87,62.47,1.07,34.83,11.79,66.82,30.01,96.39.49.79.82,2.28,2.02,1.91,1.19-.37.67-1.79.6-2.71-.7-8.58-.86-17.19-.49-25.78.82-18.77,3.71-37.1,12.31-54.15,7.4-14.68,18.87-25.21,32.92-33.27,2.91-1.67,2.62.24,2.66,2.03.35,15.74,1.49,31.4,5.27,46.75,3.23,13.1,8.06,25.5,16.98,35.87,12.26,14.25,27.85,19.86,46.45,17.34,2.98-.4,3.03-1.72,2.22-4.16-5.63-16.88-7.37-34.19-5.45-51.88.02-.17.19-.33.28-.48,14.69,37.25,41.06,65.93,68.55,93.96.21-15.72-.14-31.23.57-47.31,4.56,3.77,8,7.76,11.22,11.94,11.78,15.28,20.12,32.45,27.41,50.19,8.79,21.39,15.57,43.42,21.17,65.84.24.96.1,2.38,1.25,2.54,1.13.15,1.45-1.25,1.94-2.09,8.49-14.34,13.35-29.96,15.49-46.36,5.37-41.13-.99-80.66-16.94-118.79-2.23-5.33-5.06-10.37-8.25-15.19-.6-.9-1.05-1.99-2.91-2.62,4.25,20.29,8.1,40.17,10.31,60.33,2.22,20.26,3.05,40.52.68,60.89-1.06-6.52-2.03-13.06-3.18-19.57-2.78-15.71-5.86-31.35-10.93-46.52-1.94-5.8-4.12-11.53-7.74-16.54-2.63-3.64-3.76-3.59-6.04.22-4.02,6.71-4.54,14.11-3.84,21.67.42,4.5,1.18,8.95,1.87,13.54-41.42-44.25-71.28-94.39-78.87-156.41-2.36,2.22-2.96,4.63-3.66,6.94-3.13,10.37-3.19,21.07-2.22,31.65,2.92,32.19,13.62,61.68,31.97,88.34,2.15,3.12,4.48,6.11,6.55,9.35-6.23-2.82-11.77-6.64-16.84-11.14-17.56-15.62-28.49-35.49-36.45-57.22-2.22-6.05-4.23-12.18-5.57-18.51-.14-.65-.18-1.53-.88-1.72-1.05-.28-1.21.79-1.55,1.43-9.11,17.24-15.27,35.29-14.72,55.09.2,7.01,1.39,13.94,2.26,20.89.19,1.54.26,3.11.39,4.66Z"/>
  <polyline class="cls-1" points="663.99 704.6 636.51 688.66 648.71 663.26 680.37 683.22"/>
  <text class="cls-2" transform="translate(915.35 456.95)"><tspan x="0" y="0">WILD </tspan></text>
  <text class="cls-2" transform="translate(907.52 651.67)"><tspan x="0" y="0">ANIMALS</tspan></text>
  <text/>
  <text/>
</svg>